<?xml version="1.0" standalone="no"?>
<!DOCTYPE svg PUBLIC "-//W3C//DTD SVG 20010904//EN"
 "http://www.w3.org/TR/2001/REC-SVG-20010904/DTD/svg10.dtd">
<svg version="1.0" xmlns="http://www.w3.org/2000/svg"
 width="300.000000pt" height="194.000000pt" viewBox="0 0 300.000000 194.000000"
 preserveAspectRatio="xMidYMid meet">
<metadata>
Created by potrace 1.10, written by Peter Selinger 2001-2011
</metadata>
<g transform="translate(0.000000,194.000000) scale(0.100000,-0.100000)"
fill="#000000" stroke="none">
<path d="M518 1604 c-284 -68 -483 -342 -465 -639 17 -292 228 -523 520 -573
90 -15 104 -15 194 0 166 28 339 136 413 257 l25 40 846 1 847 0 -2 25 -1 25
-242 0 -243 0 0 70 0 70 233 0 233 0 -4 -59 c-3 -36 0 -61 7 -65 8 -5 11 12
12 56 0 35 2 73 3 86 l3 22 -244 0 -243 0 0 30 0 30 166 0 c158 0 165 -1 159
-19 -3 -11 -1 -22 5 -26 6 -4 10 15 10 55 0 39 -4 59 -10 55 -6 -4 -9 -14 -8
-23 3 -15 -14 -17 -159 -20 l-163 -2 0 30 0 30 243 0 c236 0 243 1 243 20 0
19 -7 20 -243 20 l-243 0 0 70 0 70 243 0 242 0 1 25 2 25 -838 0 -838 0 -22
36 c-77 132 -221 238 -377 278 -74 20 -226 20 -305 0z m306 -30 c168 -43 318
-172 390 -335 19 -44 59 -200 53 -205 -1 -1 -126 115 -277 257 -151 143 -287
269 -302 280 l-27 20 -218 -213 c-120 -116 -252 -245 -294 -286 l-76 -74 12
73 c25 139 76 240 173 334 151 148 358 203 566 149z m198 -348 l237 -221 -147
-143 c-81 -78 -215 -207 -298 -287 l-151 -144 -284 285 c-156 156 -284 286
-284 288 0 3 128 128 285 279 l285 275 60 -55 c33 -31 167 -155 297 -277z
m373 13 c5 -5 32 -9 60 -9 28 0 56 -5 63 -12 29 -29 3 -70 -43 -70 -22 0 -25
-5 -25 -34 0 -23 5 -34 18 -37 9 -3 -5 -5 -33 -5 -27 0 -44 2 -37 5 17 7 16
130 -2 148 -18 18 -27 9 -17 -19 10 -27 8 -97 -2 -114 -13 -19 11 -42 44 -42
28 0 29 -1 29 -54 0 -50 -2 -54 -27 -61 -45 -11 -53 -22 -40 -55 8 -21 8 -44
1 -80 -9 -41 -8 -53 4 -62 12 -10 11 -13 -5 -19 -15 -7 -142 -1 -151 6 -2 2 4
19 12 38 20 48 46 152 46 183 0 14 -5 34 -11 45 -7 15 -7 24 2 35 15 18 5 97
-22 173 -10 30 -19 57 -19 59 0 8 145 -10 155 -19z m325 11 c0 -5 -7 -10 -15
-10 -8 0 -15 5 -15 10 0 6 7 10 15 10 8 0 15 -4 15 -10z m120 0 c0 -5 -4 -10
-10 -10 -5 0 -10 5 -10 10 0 6 5 10 10 10 6 0 10 -4 10 -10z m292 -2 c-7 -7
-9 -27 -6 -52 5 -34 2 -43 -15 -54 -20 -11 -21 -10 -21 27 0 22 5 43 10 46 7
4 7 13 0 26 -9 17 -7 19 17 19 20 0 24 -3 15 -12z m261 -160 c0 -98 3 -178 8
-185 7 -7 6 -14 -1 -18 -5 -3 -10 -41 -10 -86 l0 -79 -44 0 -44 0 5 40 c4 30
1 45 -11 59 -11 13 -14 21 -7 26 15 9 14 68 -1 83 -7 7 -22 12 -34 12 -17 0
-20 5 -17 24 3 13 0 26 -5 30 -20 12 -1 46 27 46 15 0 32 5 39 12 16 16 15 74
-1 90 -11 10 -11 17 2 40 13 23 14 31 4 48 -19 29 -18 30 40 30 l52 0 -2 -172z
m-713 121 c0 -23 -15 -25 -24 -4 -3 8 -17 15 -31 15 -21 0 -25 -5 -25 -30 0
-33 14 -39 28 -14 7 13 10 9 14 -20 4 -36 -5 -49 -16 -21 -10 27 -26 15 -26
-20 0 -27 4 -35 18 -35 21 0 48 19 55 40 3 8 6 0 6 -17 l1 -33 -72 1 c-40 0
-67 3 -60 6 15 6 17 143 2 143 -5 0 -10 3 -10 8 0 4 31 6 70 4 61 -3 70 -6 70
-23z m135 6 c50 -49 20 -145 -46 -145 -35 0 -69 41 -69 84 0 35 14 57 45 74
30 17 43 14 70 -13z m163 3 c30 -25 3 -70 -43 -70 -22 0 -25 -5 -25 -34 0 -23
5 -34 18 -37 9 -3 -5 -5 -33 -5 -27 0 -44 2 -37 5 15 6 17 143 2 143 -5 0 -10
3 -10 8 0 10 113 2 128 -10z m109 8 c3 -3 -1 -6 -10 -6 -14 0 -17 -11 -17 -70
0 -43 4 -70 11 -70 20 0 49 21 49 35 0 8 5 15 11 15 6 0 8 -7 5 -16 -3 -9 -6
-22 -6 -30 0 -11 -16 -14 -72 -13 -40 1 -65 3 -55 6 14 4 17 16 17 74 0 39 -4
69 -10 69 -5 0 -10 3 -10 8 0 9 78 8 87 -2z m193 -18 c-1 -21 -2 -22 -14 -5
-22 28 -53 22 -58 -13 -5 -33 8 -39 28 -12 12 15 13 12 13 -23 0 -35 -1 -38
-13 -22 -21 27 -32 20 -28 -18 5 -44 31 -47 61 -7 l20 27 1 -32 0 -33 -77 0
c-50 0 -73 4 -64 9 21 13 22 139 1 145 -8 2 18 4 58 5 68 1 72 0 72 -21z
m-750 -95 c0 -10 -5 -25 -10 -33 -9 -13 -12 -12 -25 4 -20 27 -19 34 8 39 12
2 23 5 25 6 1 0 2 -7 2 -16z m455 2 c-17 -53 -15 -52 -31 -31 -18 26 -18 34 4
39 30 8 31 7 27 -8z m-472 -72 c-22 -8 -15 -43 8 -43 17 0 20 5 17 23 -3 18 0
22 21 23 14 1 20 -1 14 -3 -8 -3 -13 -22 -13 -48 0 -25 5 -45 13 -48 6 -3 2
-6 -10 -6 -18 -1 -23 5 -23 24 0 19 -5 25 -21 25 -17 0 -20 -5 -17 -25 4 -17
1 -25 -8 -25 -10 0 -14 14 -14 49 0 31 -5 51 -12 54 -7 2 3 4 22 4 19 0 29 -2
23 -4z m175 -17 c4 -18 3 -19 -13 -3 -22 23 -45 21 -45 -3 0 -22 25 -28 33 -7
3 6 6 -1 6 -17 1 -23 -2 -27 -11 -18 -18 18 -28 15 -28 -8 0 -26 46 -28 53 -2
4 13 5 11 6 -5 1 -20 -4 -23 -42 -23 l-42 0 4 46 c2 28 -1 49 -8 54 -7 4 10 6
36 6 39 -1 48 -5 51 -20z m75 17 c-8 -3 -13 -23 -13 -54 0 -44 -2 -49 -22 -48
-13 0 -17 3 -10 6 7 3 12 23 12 48 0 26 -5 45 -12 48 -7 2 3 4 22 4 19 0 29
-2 23 -4z m136 -7 c20 -13 12 -37 -18 -49 -24 -10 -27 -16 -20 -30 8 -14 6
-17 -13 -17 -21 0 -23 4 -23 54 l0 54 31 -3 c17 -1 36 -5 43 -9z m72 1 c-15
-15 -14 -84 2 -90 6 -3 1 -6 -13 -6 -24 -1 -25 2 -25 53 0 49 2 54 23 54 17 0
20 -4 13 -11z m85 -24 c19 -20 34 -46 34 -57 0 -23 -6 -17 -44 39 l-26 40 0
-42 c0 -24 5 -43 12 -45 7 -3 4 -7 -7 -10 -18 -4 -20 0 -20 54 0 32 4 58 9 58
4 0 24 -17 42 -37z m46 12 c-7 -37 -19 -39 -24 -5 -4 23 -1 30 12 30 13 0 16
-6 12 -25z m92 19 c9 -3 16 -13 16 -21 0 -12 -3 -12 -16 2 -24 24 -39 13 -42
-32 -2 -29 1 -42 12 -46 20 -8 33 13 15 24 -10 6 -3 9 20 9 l34 0 -27 -25
c-31 -29 -36 -30 -59 -12 -28 21 -32 62 -8 86 22 22 30 25 55 15z m-394 -29
c0 -14 -4 -25 -10 -25 -5 0 -10 11 -10 25 0 14 5 25 10 25 6 0 10 -11 10 -25z
m-1569 -182 c85 -87 213 -218 284 -291 l130 -133 -45 6 c-278 40 -481 245
-519 523 -4 28 -7 52 -6 52 1 0 71 -71 156 -157z m1023 67 c-21 -117 -83 -231
-168 -315 -101 -100 -210 -153 -351 -169 l-50 -6 290 284 c160 156 291 283
292 282 1 -1 -5 -35 -13 -76z m550 55 c-4 -8 -16 -14 -28 -14 -16 1 -17 2 -3
6 9 2 17 9 17 14 0 5 4 9 10 9 5 0 7 -7 4 -15z m106 -5 c0 -5 -4 -10 -10 -10
-5 0 -10 5 -10 10 0 6 5 10 10 10 6 0 10 -4 10 -10z m218 -69 c1 -37 -3 -52
-18 -66 -20 -18 -20 -17 -20 27 0 24 3 48 8 52 4 4 8 12 8 17 3 17 4 19 12 19
4 0 9 -22 10 -49z m-617 19 c10 -6 19 -19 19 -30 0 -21 -35 -50 -62 -50 -25 0
-25 -57 0 -63 9 -3 -5 -5 -33 -5 -27 0 -44 2 -37 5 8 3 12 28 12 73 0 45 -4
70 -12 73 -7 3 11 6 40 6 29 1 62 -4 73 -9z m168 -17 l0 -28 -16 23 c-9 12
-26 22 -39 22 -23 0 -24 -3 -24 -70 0 -68 1 -70 24 -70 14 0 32 10 40 22 l16
22 0 -27 c0 -27 0 -27 -72 -26 -40 0 -67 3 -60 6 8 3 12 28 12 73 0 45 -4 70
-12 73 -7 3 20 6 60 6 l72 1 -1 -27z m141 5 c20 -21 26 -70 14 -103 -4 -8 -19
-22 -35 -31 -26 -13 -32 -13 -58 0 -32 17 -41 34 -41 79 0 66 77 101 120 55z
m151 12 c10 -6 19 -19 19 -30 0 -21 -35 -50 -62 -50 -25 0 -25 -57 0 -63 9 -3
-5 -5 -33 -5 -27 0 -44 2 -37 5 8 3 12 28 12 73 0 45 -4 70 -12 73 -7 3 11 6
40 6 29 1 62 -4 73 -9z m102 3 c-9 -3 -13 -28 -13 -75 0 -66 1 -69 23 -66 12
2 26 13 32 26 11 25 31 31 21 6 -3 -9 -6 -22 -6 -30 0 -11 -16 -14 -72 -13
-40 1 -65 3 -55 6 14 4 17 16 17 73 0 57 -3 69 -17 73 -10 3 5 5 32 5 28 0 44
-2 38 -5z m207 -20 l0 -27 -16 22 c-8 12 -26 22 -40 22 -20 0 -24 -5 -24 -29
0 -33 17 -51 26 -27 11 29 24 17 24 -21 -1 -34 -2 -36 -14 -20 -20 26 -36 21
-36 -13 0 -23 5 -30 19 -30 30 0 51 11 51 25 0 8 5 17 10 20 6 4 10 -7 10 -24
l0 -31 -77 1 c-43 1 -71 3 -63 5 12 4 15 21 15 74 0 53 -3 70 -15 74 -8 2 18
4 58 5 l72 1 0 -27z m-641 -60 c0 -21 -3 -31 -6 -23 -3 8 -10 18 -16 21 -6 4
-4 13 4 23 19 21 19 21 18 -21z m-112 -58 c-2 -40 -5 -45 -25 -45 -19 0 -21 3
-12 19 7 13 7 22 0 26 -19 12 -6 27 37 44 1 1 1 -19 0 -44z m450 6 c-3 -15 -1
-33 6 -40 8 -8 4 -11 -16 -11 -24 0 -26 3 -18 18 7 13 6 23 -2 31 -9 9 -8 14
3 21 25 16 33 11 27 -19z m-262 -41 c3 -5 -1 -10 -9 -10 -9 0 -16 5 -16 10 0
6 4 10 9 10 6 0 13 -4 16 -10z m125 0 c0 -5 -5 -10 -11 -10 -5 0 -7 5 -4 10 3
6 8 10 11 10 2 0 4 -4 4 -10z"/>
<path d="M458 1313 c-109 -108 -198 -198 -198 -199 0 -1 8 0 17 3 10 2 101 82
202 178 l184 173 101 -97 c203 -195 261 -248 279 -254 10 -4 17 -4 15 0 -4 10
-393 393 -399 393 -2 0 -93 -89 -201 -197z"/>
<path d="M486 1276 l-179 -172 5 -48 c7 -57 34 -89 95 -112 l44 -17 -3 -94 -3
-93 54 0 54 0 -5 73 -5 74 36 -13 c55 -20 131 -17 161 6 29 22 23 25 -17 8
-42 -17 -72 -17 -136 0 -49 13 -57 18 -55 36 3 18 -3 21 -44 24 l-48 3 0 40
c0 22 -4 38 -8 35 -17 -10 -52 25 -52 52 0 33 8 45 38 61 22 12 22 11 22 -49
l0 -61 73 5 c39 3 92 10 117 16 38 9 52 8 85 -7 26 -11 65 -18 108 -18 l68 0
-3 58 c-2 41 1 57 10 57 21 0 52 -39 52 -65 0 -25 -31 -65 -50 -65 -5 0 -10
-13 -10 -29 0 -31 -14 -41 -61 -41 -16 0 -29 -4 -29 -9 0 -5 -8 -11 -17 -13
-16 -4 -18 -16 -15 -91 l3 -87 60 0 59 0 0 100 c0 94 1 100 20 100 68 0 122
81 102 152 -4 14 -81 97 -177 191 l-171 165 -178 -172z m207 107 c10 -13 23
-21 28 -18 5 4 9 -2 9 -11 0 -10 3 -15 6 -11 7 6 54 -41 54 -54 0 -5 7 -9 15
-9 9 0 20 -10 25 -22 5 -13 9 -20 9 -15 1 4 14 -7 30 -25 27 -30 29 -35 15
-55 -8 -12 -14 -42 -14 -66 l0 -44 -52 1 -53 1 2 54 c0 30 6 64 13 76 10 18 8
27 -13 58 -13 20 -27 33 -31 30 -3 -4 -6 1 -6 11 0 9 -4 14 -10 11 -5 -3 -10
-1 -10 5 0 14 -20 35 -40 42 -8 3 -27 -8 -43 -23 -15 -16 -29 -29 -32 -29 -2
0 -15 -11 -29 -25 -14 -14 -23 -25 -20 -25 3 0 -1 -7 -9 -15 -9 -8 -13 -24
-10 -36 4 -16 8 -17 14 -7 5 8 9 -14 9 -54 l0 -68 -45 0 c-45 0 -46 0 -45 33
2 54 -5 72 -28 71 -24 -1 -20 13 10 34 10 7 16 18 12 23 -3 5 0 8 8 7 7 -2 12
3 11 9 -2 7 1 12 5 10 4 -1 23 14 43 33 19 19 52 50 72 68 21 17 35 32 32 32
-3 0 0 6 7 13 18 20 40 17 61 -10z m32 -123 c52 -53 57 -60 36 -60 -23 0 -24
-2 -19 -70 4 -55 2 -70 -8 -70 -8 0 -14 9 -14 20 0 18 -7 20 -64 20 -59 0 -64
-2 -59 -20 4 -14 0 -20 -11 -20 -13 0 -16 12 -16 70 0 60 -3 70 -17 70 -12 0
2 20 42 60 33 33 62 60 65 60 3 0 32 -27 65 -60z m209 -99 c4 -5 -3 -7 -14 -4
-23 6 -26 13 -6 13 8 0 17 -4 20 -9z m-570 -56 c-10 -24 5 -85 21 -85 8 0 17
-4 20 -10 11 -18 14 -50 4 -50 -5 0 -9 5 -9 11 0 6 -7 8 -17 5 -10 -4 -14 -4
-10 0 4 4 0 12 -9 19 -24 17 -35 92 -17 111 19 18 24 18 17 -1z m622 -43 c2
-48 0 -54 -30 -77 -38 -29 -46 -31 -46 -9 0 8 13 26 29 40 31 25 47 83 27 97
-7 6 -6 7 4 5 10 -3 15 -21 16 -56z m-474 -164 c16 -28 18 -78 3 -78 -5 0 -3
-5 5 -10 13 -9 13 -11 0 -20 -13 -9 -13 -11 0 -20 11 -7 7 -8 -15 -6 l-30 3
-3 77 c-2 62 0 76 12 76 9 0 21 -10 28 -22z m358 -28 c0 -33 -4 -50 -12 -50
-9 0 -9 -3 1 -9 12 -8 12 -12 2 -24 -9 -12 -9 -16 1 -19 7 -3 -5 -4 -27 -4
-35 0 -40 3 -42 25 -1 18 1 21 9 10 7 -10 8 -9 3 6 -25 67 -8 115 42 115 21 0
23 -4 23 -50z"/>
<path d="M633 1208 c-34 -16 -33 -75 1 -84 44 -11 61 -1 66 36 8 51 -20 71
-67 48z m52 -43 c0 -31 -3 -35 -25 -35 -23 0 -26 4 -26 35 0 31 3 35 26 35 22
0 25 -4 25 -35z"/>
<path d="M851 854 c0 -11 3 -14 6 -6 3 7 2 16 -1 19 -3 4 -6 -2 -5 -13z"/>
<path d="M600 1030 c-17 -11 -10 -13 42 -10 26 1 56 -9 100 -33 48 -27 71 -34
96 -30 27 4 32 9 32 33 0 26 -1 27 -50 22 -32 -3 -63 1 -90 12 -45 18 -107 21
-130 6z"/>
<path d="M450 992 c0 -26 3 -28 29 -24 16 2 38 -1 48 -7 11 -5 44 -13 74 -16
29 -4 56 -10 59 -14 7 -12 47 -31 62 -31 7 0 1 8 -14 18 -16 9 -28 20 -28 24
0 4 15 -1 33 -12 17 -11 35 -20 40 -20 17 0 5 17 -24 34 -17 10 -28 20 -25 23
3 3 18 -4 34 -16 17 -12 35 -21 41 -21 25 0 7 17 -50 49 -50 27 -67 32 -99 27
-22 -3 -41 -2 -45 4 -3 5 -35 10 -71 10 -64 0 -64 0 -64 -28z m174 -7 c29 0
51 -5 53 -12 3 -9 -10 -11 -49 -7 -29 3 -60 8 -68 11 -8 4 -19 5 -23 4 -5 -1
-5 3 -2 9 4 7 14 8 24 4 9 -5 38 -8 65 -9z"/>
<path d="M547 933 c-11 -11 -8 -25 4 -17 6 3 15 1 19 -7 7 -10 11 -10 24 0 9
8 16 18 16 23 0 6 -7 4 -17 -3 -13 -11 -17 -11 -20 -1 -5 13 -16 16 -26 5z"/>
<path d="M615 910 c-10 -11 -14 -20 -8 -20 5 0 18 9 28 20 10 11 14 20 8 20
-5 0 -18 -9 -28 -20z"/>
<path d="M640 895 c-7 -8 -8 -15 -2 -15 5 0 15 7 22 15 7 8 8 15 2 15 -5 0
-15 -7 -22 -15z"/>
<path d="M680 890 c0 -5 5 -10 10 -10 6 0 10 5 10 10 0 6 -4 10 -10 10 -5 0
-10 -4 -10 -10z"/>
<path d="M571 726 c-35 -37 -27 -66 33 -125 61 -61 67 -60 129 9 28 30 37 49
37 75 0 48 -27 63 -111 63 -56 0 -70 -3 -88 -22z m78 5 c9 -6 21 -5 33 2 27
17 72 -10 76 -46 3 -21 -7 -38 -45 -78 l-49 -51 -52 53 c-56 59 -62 79 -32
109 21 21 46 25 69 11z"/>
<path d="M1450 1190 c0 -25 4 -31 18 -28 11 2 17 12 17 28 0 16 -6 26 -17 28
-14 3 -18 -3 -18 -28z"/>
<path d="M1744 1186 c-10 -55 3 -106 26 -106 24 0 33 29 28 91 -2 36 -7 45
-25 47 -18 3 -23 -3 -29 -32z"/>
<path d="M1910 1190 c0 -25 4 -31 18 -28 11 2 17 12 17 28 0 16 -6 26 -17 28
-14 3 -18 -3 -18 -28z"/>
<path d="M1857 1020 c-6 -23 10 -37 25 -22 12 12 4 42 -11 42 -5 0 -11 -9 -14
-20z"/>
<path d="M1450 864 c0 -23 4 -34 12 -32 33 11 36 68 3 68 -11 0 -15 -10 -15
-36z"/>
<path d="M1746 884 c-3 -9 -6 -33 -6 -54 0 -51 8 -70 30 -70 22 0 30 19 30 70
0 51 -8 70 -30 70 -10 0 -21 -7 -24 -16z"/>
<path d="M1910 864 c0 -23 4 -34 12 -32 33 11 36 68 3 68 -11 0 -15 -10 -15
-36z"/>
<path d="M2876 1222 c-11 -18 -9 -93 2 -104 9 -9 12 2 12 50 0 60 -3 71 -14
54z"/>
<path d="M1238 644 c-5 -4 -8 -37 -8 -73 0 -45 3 -62 11 -54 5 5 9 38 7 72 -2
35 -6 59 -10 55z"/>
<path d="M1437 633 c-4 -3 -7 -26 -7 -49 0 -50 19 -74 60 -74 44 0 46 18 3 22
l-38 3 0 53 c0 50 -4 60 -18 45z"/>
<path d="M1842 628 c-15 -15 -16 -122 -1 -112 6 3 9 17 6 30 -4 22 -1 24 33
24 35 0 36 -1 32 -31 -3 -22 -1 -30 7 -25 15 9 14 99 -1 114 -7 7 -24 12 -38
12 -14 0 -31 -5 -38 -12z m52 -4 c9 -3 16 -14 16 -23 0 -12 -8 -16 -32 -15
-33 2 -40 20 -15 36 15 9 12 9 31 2z"/>
<path d="M2310 574 c0 -41 4 -63 10 -59 6 3 10 33 10 66 0 33 -4 59 -10 59 -6
0 -10 -29 -10 -66z"/>
<path d="M2620 574 c0 -41 4 -63 10 -59 6 3 10 33 10 66 0 33 -4 59 -10 59 -6
0 -10 -29 -10 -66z"/>
<path d="M1282 598 c-15 -15 -16 -92 -2 -83 6 3 10 22 10 41 0 30 3 34 25 34
23 0 25 -4 25 -40 0 -22 5 -40 10 -40 14 0 12 74 -2 88 -7 7 -21 12 -33 12
-12 0 -26 -5 -33 -12z"/>
<path d="M1568 599 c-25 -14 -24 -65 1 -79 27 -14 47 -13 65 6 45 45 -10 106
-66 73z m60 -21 c15 -15 -3 -48 -28 -48 -25 0 -43 33 -28 48 7 7 19 12 28 12
9 0 21 -5 28 -12z"/>
<path d="M1675 600 c-9 -15 12 -38 37 -42 38 -5 33 -28 -6 -28 -20 0 -36 -4
-36 -10 0 -16 66 -12 80 5 15 18 5 34 -34 51 l-31 13 27 1 c15 0 30 5 33 10 4
6 -8 10 -29 10 -19 0 -38 -5 -41 -10z"/>
<path d="M1962 598 c-7 -7 -12 -30 -12 -52 0 -46 17 -39 22 9 2 24 8 30 28 30
22 0 25 -5 28 -38 4 -45 22 -40 22 7 0 39 -15 56 -50 56 -14 0 -31 -5 -38 -12z"/>
<path d="M2077 589 c-30 -42 12 -92 59 -70 19 8 22 7 18 -4 -7 -17 -39 -29
-54 -20 -5 3 -10 1 -10 -4 0 -15 53 -14 68 1 7 7 12 31 12 55 0 32 -5 45 -19
53 -31 16 -59 12 -74 -11z m68 -29 c0 -30 -35 -40 -55 -15 -10 12 -10 18 0 30
20 25 55 15 55 -15z"/>
<path d="M2206 594 c-9 -8 -16 -24 -16 -34 0 -27 44 -54 75 -46 38 10 30 23
-12 22 -34 -1 -38 2 -38 24 0 20 6 26 29 28 34 4 32 -21 -2 -26 -12 -2 -20 -7
-17 -11 7 -13 56 0 62 15 14 37 -51 59 -81 28z"/>
<path d="M2362 598 c-19 -19 -15 -66 7 -78 27 -14 44 -13 67 5 18 13 16 14
-16 9 -25 -4 -40 -1 -48 9 -18 22 -4 49 25 45 34 -4 32 -22 -3 -29 -16 -4 -22
-8 -14 -9 26 -4 44 1 60 16 13 14 13 17 -4 30 -24 17 -58 18 -74 2z"/>
<path d="M2467 603 c-14 -13 -6 -24 28 -39 43 -17 45 -34 6 -34 -17 0 -33 -4
-36 -10 -10 -16 61 -12 75 5 18 21 8 37 -31 51 l-34 12 33 1 c17 1 32 6 32 11
0 11 -63 14 -73 3z"/>
<path d="M2672 598 c-7 -7 -12 -30 -12 -52 0 -46 17 -39 22 9 2 24 8 30 28 30
22 0 25 -5 28 -38 4 -43 22 -41 22 3 0 49 -56 80 -88 48z"/>
<path d="M2787 592 c-22 -24 -21 -38 3 -62 21 -21 60 -27 60 -10 0 6 -8 10
-19 10 -10 0 -24 6 -30 14 -17 20 -3 46 25 46 13 0 24 5 24 10 0 17 -46 11
-63 -8z"/>
<path d="M2876 531 c-4 -5 -2 -12 3 -15 5 -4 12 -2 15 3 4 5 2 12 -3 15 -5 4
-12 2 -15 -3z"/>
</g>
</svg>
