<?xml version="1.0" standalone="no"?>
<!DOCTYPE svg PUBLIC "-//W3C//DTD SVG 20010904//EN"
 "http://www.w3.org/TR/2001/REC-SVG-20010904/DTD/svg10.dtd">
<svg version="1.0" xmlns="http://www.w3.org/2000/svg"
 width="3126.000000pt" height="3126.000000pt" viewBox="0 0 3126.000000 3126.000000"
 preserveAspectRatio="xMidYMid meet">
<metadata>
Created by potrace 1.11, written by Peter Selinger 2001-2013
</metadata>
<g transform="translate(0.000000,3126.000000) scale(0.100000,-0.100000)"
fill="#000000" stroke="none">
<path d="M15250 30570 c0 -6 -33 -10 -80 -10 -98 0 -576 -27 -720 -40 -58 -5
-159 -14 -225 -20 -334 -28 -864 -102 -1298 -180 -342 -62 -1112 -236 -1472
-334 -267 -73 -729 -212 -900 -272 -340 -119 -323 -113 -570 -208 -338 -130
-659 -266 -968 -410 -124 -58 -594 -293 -673 -336 -32 -18 -88 -48 -124 -68
-492 -266 -1094 -642 -1510 -942 -27 -19 -100 -71 -162 -115 -248 -175 -632
-471 -888 -684 -1172 -975 -2214 -2168 -3084 -3531 -27 -41 -59 -91 -71 -110
-54 -82 -212 -350 -338 -575 -150 -267 -406 -768 -499 -975 -9 -19 -28 -62
-43 -95 -291 -642 -577 -1432 -747 -2065 -252 -942 -400 -1683 -483 -2430
-155 -1380 -107 -2801 139 -4120 42 -224 73 -372 141 -665 80 -350 200 -776
335 -1190 542 -1660 1361 -3204 2439 -4595 178 -230 285 -360 518 -632 596
-694 1317 -1386 2063 -1980 1045 -831 2239 -1549 3430 -2062 85 -37 164 -71
175 -76 174 -79 744 -293 1065 -400 343 -115 472 -154 800 -246 119 -33 457
-119 570 -145 258 -59 433 -96 635 -134 77 -14 160 -30 185 -35 229 -47 951
-144 1260 -170 69 -6 172 -15 230 -20 235 -23 909 -50 1225 -50 316 0 990 27
1225 50 58 5 161 14 230 20 537 45 1312 167 1910 301 187 42 218 49 430 103
255 64 433 113 725 200 296 89 973 328 1235 437 52 22 129 54 170 71 1294 536
2546 1277 3665 2168 178 142 216 174 410 339 1619 1379 2957 3124 3872 5046
180 378 280 612 468 1090 314 797 603 1835 765 2750 74 417 153 1008 175 1305
3 47 10 126 15 175 22 201 50 890 50 1204 0 311 -28 994 -49 1211 -6 52 -13
131 -16 175 -28 362 -110 959 -196 1420 -32 176 -104 521 -134 640 -8 33 -33
137 -55 230 -23 94 -47 190 -55 215 -7 25 -20 72 -29 105 -114 419 -233 792
-388 1220 -91 251 -92 252 -185 400 -62 99 -121 200 -210 365 -17 30 -97 186
-178 345 -109 214 -153 291 -169 295 -11 3 -28 19 -37 35 -277 502 -579 993
-834 1355 -147 209 -454 628 -537 732 -292 369 -432 537 -667 803 -538 607
-1274 1295 -1905 1783 -1125 870 -2165 1494 -3366 2022 -160 70 -609 254 -660
270 -14 5 -63 22 -110 40 -146 54 -191 70 -340 121 -150 52 -431 142 -580 185
-47 14 -137 41 -200 59 -64 19 -133 38 -155 44 -22 5 -148 37 -280 70 -213 55
-317 79 -645 153 -651 146 -1308 248 -1980 308 -251 22 -717 50 -840 50 -47 0
-80 4 -80 10 0 7 -143 10 -410 10 -267 0 -410 -3 -410 -10z m753 -337 c-7 -2
-19 -2 -25 0 -7 3 -2 5 12 5 14 0 19 -2 13 -5z m-194 -353 l38 -29 414 -4
c228 -2 479 -9 559 -16 696 -58 1445 -167 1975 -286 33 -7 105 -23 160 -35
841 -185 1937 -542 2642 -861 24 -10 45 -19 48 -19 2 0 44 -19 92 -41 49 -23
128 -59 177 -81 135 -59 548 -265 761 -378 504 -269 1056 -607 1492 -914 43
-30 96 -68 118 -83 127 -88 488 -361 660 -500 1501 -1205 2756 -2699 3643
-4333 19 -36 38 -69 42 -75 4 -5 71 -134 147 -285 247 -485 402 -835 629
-1417 104 -266 289 -830 374 -1138 12 -44 28 -100 36 -125 46 -155 154 -610
214 -910 74 -371 102 -544 169 -1040 40 -292 101 -1050 86 -1050 -9 0 -87 71
-420 380 -38 36 -97 90 -130 120 -293 268 -424 393 -869 830 -334 328 -449
438 -631 605 -71 66 -157 145 -190 176 -82 76 -209 193 -275 254 -30 27 -88
82 -130 120 -41 39 -104 97 -140 130 -36 33 -121 112 -190 176 -174 161 -497
460 -670 619 -80 74 -170 157 -200 185 -30 29 -145 135 -255 237 -370 341
-619 571 -755 697 -74 69 -191 177 -260 241 -68 63 -158 146 -200 185 -41 38
-100 92 -130 120 -30 27 -88 82 -130 120 -41 39 -133 124 -205 190 -71 66
-157 145 -190 176 -33 31 -127 118 -210 194 -263 243 -528 488 -590 546 -33
31 -125 116 -205 189 -80 74 -197 182 -260 240 -63 59 -209 194 -325 301 -178
164 -608 561 -765 704 -25 23 -79 73 -120 111 -190 175 -885 807 -1285 1169
-115 104 -286 259 -380 345 -93 86 -244 223 -335 305 -91 82 -327 295 -525
475 -198 179 -445 402 -550 495 -104 93 -293 264 -420 380 -231 212 -688 628
-955 870 -79 72 -148 135 -154 140 -6 6 -132 120 -281 255 -227 206 -562 509
-601 545 -6 6 -53 48 -105 95 -82 75 -178 161 -216 197 -7 6 -123 111 -258
234 -178 161 -242 225 -235 234 5 6 7 15 3 18 -3 4 4 7 16 7 12 0 19 -4 16
-10 -4 -6 19 -10 63 -10 63 0 71 2 97 30 16 17 31 30 33 30 2 0 21 -13 41 -30z
m-344 -51 c-35 -39 -36 -42 -20 -59 16 -18 12 -24 -89 -121 -58 -56 -132 -122
-163 -146 -56 -43 -116 -99 -368 -342 -66 -64 -205 -197 -310 -296 -104 -99
-244 -232 -310 -295 -66 -64 -167 -161 -225 -215 -58 -54 -164 -156 -235 -225
-72 -69 -220 -210 -330 -314 -110 -104 -256 -244 -325 -310 -69 -67 -206 -197
-305 -291 -99 -93 -238 -227 -310 -296 -71 -69 -220 -210 -330 -314 -110 -104
-254 -241 -320 -305 -66 -64 -160 -154 -210 -201 -49 -47 -194 -184 -320 -304
-127 -121 -278 -265 -335 -319 -58 -55 -197 -188 -310 -295 -113 -108 -245
-234 -295 -281 -49 -47 -92 -87 -95 -90 -91 -89 -309 -297 -455 -435 -232
-221 -599 -569 -720 -685 -158 -152 -305 -291 -525 -500 -118 -113 -258 -245
-310 -295 -52 -50 -147 -140 -210 -200 -63 -60 -155 -148 -205 -195 -49 -47
-144 -137 -210 -200 -66 -63 -167 -159 -225 -215 -58 -56 -190 -182 -295 -280
-104 -99 -237 -225 -295 -280 -58 -55 -150 -143 -205 -196 -103 -97 -212 -201
-395 -375 -58 -55 -154 -147 -215 -205 -60 -57 -157 -149 -215 -204 -222 -212
-308 -294 -405 -385 -55 -52 -147 -140 -205 -195 -58 -56 -193 -185 -300 -286
-107 -101 -291 -276 -410 -389 -118 -113 -352 -336 -520 -495 -168 -159 -350
-332 -405 -385 -55 -53 -242 -231 -415 -395 -173 -164 -400 -380 -505 -480
-104 -99 -332 -316 -505 -481 -173 -164 -483 -459 -689 -654 -205 -195 -379
-356 -386 -358 -10 -2 -13 6 -10 30 2 18 6 107 9 198 3 91 10 219 15 285 6 66
15 176 21 245 32 389 90 833 156 1200 35 199 55 307 64 345 5 22 18 83 29 135
93 439 179 770 317 1225 51 170 206 626 249 735 8 19 28 73 46 120 87 227 245
610 307 743 23 49 42 90 42 92 0 8 121 258 221 459 673 1343 1550 2564 2625
3652 169 171 263 262 484 470 177 165 549 483 825 705 89 72 503 382 632 474
738 524 1643 1043 2432 1395 60 26 124 55 143 63 137 63 552 234 708 291 324
121 680 243 905 311 50 15 101 31 115 35 64 22 435 124 619 170 1093 275 2318
439 3345 448 l168 2 -37 -41z m209 -976 c83 -75 156 -141 161 -147 6 -6 53
-49 105 -96 52 -47 97 -89 99 -95 5 -13 101 -106 226 -220 93 -84 303 -275
405 -369 25 -23 74 -69 110 -101 36 -33 110 -101 165 -151 177 -162 238 -213
247 -208 5 3 7 0 6 -8 -2 -7 5 -12 15 -12 11 1 16 -4 15 -14 -2 -10 4 -17 13
-17 15 0 95 -69 348 -301 164 -149 323 -293 451 -409 79 -71 151 -137 160
-145 9 -8 58 -53 110 -100 52 -47 101 -92 110 -100 44 -40 211 -191 255 -231
28 -24 52 -47 55 -50 3 -3 34 -32 70 -64 36 -32 83 -75 105 -95 22 -20 94 -85
160 -145 66 -60 122 -111 125 -114 3 -3 48 -44 100 -91 52 -47 97 -87 100 -90
3 -4 50 -46 105 -95 112 -101 105 -94 171 -155 27 -25 171 -155 319 -290 278
-252 347 -314 375 -340 8 -8 60 -55 115 -104 55 -49 102 -92 105 -95 3 -3 48
-44 100 -91 52 -47 101 -92 110 -100 29 -27 179 -163 814 -739 77 -69 144
-131 150 -136 6 -6 56 -51 111 -100 55 -49 127 -115 160 -146 33 -31 134 -123
225 -205 91 -81 185 -167 210 -189 160 -147 358 -326 425 -386 28 -24 52 -46
55 -49 3 -4 37 -35 75 -69 39 -35 88 -80 110 -100 83 -76 672 -610 730 -661
33 -30 87 -79 120 -110 33 -30 105 -95 159 -145 160 -144 356 -324 421 -384
33 -31 101 -94 150 -141 50 -46 167 -156 260 -245 179 -169 342 -323 361 -340
6 -5 51 -48 100 -94 49 -47 127 -121 174 -165 47 -45 167 -157 265 -251 99
-93 209 -197 244 -230 35 -33 78 -73 95 -90 30 -29 359 -339 382 -360 6 -5 87
-82 180 -170 93 -88 202 -191 243 -230 81 -76 88 -83 212 -200 46 -44 156
-147 243 -230 88 -82 166 -157 174 -165 9 -8 31 -27 50 -43 36 -28 136 -122
352 -331 69 -67 231 -222 360 -346 129 -123 296 -285 370 -360 74 -74 164
-160 200 -190 36 -30 69 -60 75 -66 5 -6 46 -39 90 -75 44 -35 82 -66 85 -69
3 -4 43 -37 90 -75 47 -38 87 -72 90 -75 3 -4 70 -60 150 -126 80 -65 201
-166 270 -222 69 -57 141 -116 160 -130 19 -15 70 -62 115 -105 l80 -77 -45
-42 c-25 -23 -95 -89 -155 -147 -150 -144 -259 -247 -460 -436 -93 -88 -210
-198 -260 -245 -49 -48 -133 -126 -185 -175 -93 -87 -174 -165 -370 -351 -178
-170 -285 -270 -365 -345 -44 -41 -129 -121 -190 -179 -161 -154 -279 -266
-375 -355 -47 -44 -125 -119 -175 -166 -49 -47 -133 -126 -185 -175 -52 -49
-137 -130 -190 -180 -52 -49 -135 -128 -185 -175 -49 -47 -135 -127 -190 -179
-55 -52 -105 -99 -111 -105 -7 -5 -54 -50 -105 -100 -52 -49 -132 -126 -179
-170 -47 -44 -168 -159 -270 -255 -314 -297 -375 -355 -386 -365 -6 -5 -51
-48 -100 -94 -49 -47 -132 -125 -184 -175 -52 -49 -133 -126 -180 -171 -47
-44 -125 -119 -175 -165 -49 -46 -173 -163 -275 -260 -102 -97 -225 -214 -275
-260 -49 -46 -128 -121 -175 -165 -47 -45 -134 -128 -195 -185 -60 -57 -148
-140 -195 -185 -47 -44 -126 -119 -175 -165 -50 -47 -176 -166 -280 -265 -105
-99 -228 -216 -275 -260 -47 -44 -127 -120 -179 -170 -52 -49 -102 -97 -111
-105 -9 -8 -57 -53 -106 -100 -49 -47 -165 -157 -259 -245 -93 -88 -210 -198
-259 -245 -50 -47 -140 -132 -201 -190 -60 -58 -144 -137 -185 -176 -109 -102
-272 -256 -370 -349 -96 -92 -230 -219 -370 -350 -52 -50 -97 -92 -100 -95 -3
-3 -48 -45 -100 -95 -53 -49 -143 -135 -200 -190 -58 -55 -175 -165 -260 -245
-85 -80 -197 -186 -250 -236 -52 -49 -140 -133 -195 -185 -130 -123 -271 -256
-311 -294 -17 -16 -100 -95 -185 -175 -84 -80 -196 -186 -249 -236 -52 -50
-108 -104 -125 -119 -28 -25 -60 -55 -275 -259 -47 -45 -124 -117 -170 -161
-110 -103 -267 -252 -400 -379 -58 -56 -137 -130 -175 -166 -111 -103 -606
-572 -625 -590 -3 -3 -81 -77 -175 -165 -93 -88 -217 -205 -275 -261 -58 -55
-145 -138 -195 -185 -233 -220 -296 -279 -375 -354 -140 -134 -285 -271 -470
-445 -96 -91 -223 -211 -282 -267 -59 -57 -113 -103 -120 -103 -7 0 -72 -59
-143 -130 -71 -72 -134 -130 -138 -130 -5 0 -190 179 -410 398 -221 218 -620
613 -887 877 -1155 1144 -1533 1519 -2005 1986 -275 273 -536 532 -580 574
-44 43 -307 303 -585 578 -278 276 -725 719 -995 986 -269 267 -715 708 -990
981 -276 272 -728 720 -1006 995 -911 902 -1512 1497 -2022 2002 -276 274
-916 908 -1422 1408 -1233 1220 -1802 1784 -2400 2377 -275 273 -565 559 -644
636 l-145 140 148 144 c81 78 155 147 164 152 23 13 78 63 287 261 99 94 220
209 270 255 115 109 93 88 296 282 96 92 185 176 199 188 13 11 94 87 179 168
86 81 246 232 356 337 110 104 234 221 275 260 41 38 117 111 170 161 52 50
113 108 135 129 22 20 72 67 110 104 39 37 111 104 160 151 50 46 128 120 175
165 47 45 173 164 280 265 107 102 197 187 200 190 3 3 44 41 90 85 155 145
284 267 370 350 47 44 171 162 275 260 105 98 228 215 275 260 47 44 125 119
175 165 49 47 92 87 95 90 3 3 91 86 195 184 105 99 228 216 275 260 47 45
128 122 180 171 52 49 142 134 200 190 58 55 182 173 275 260 94 88 208 196
255 240 47 45 130 124 185 176 55 52 140 132 190 179 92 87 109 103 470 446
116 109 215 203 221 209 6 5 71 67 145 136 74 70 154 146 179 169 25 23 86 81
135 128 50 48 131 125 180 172 50 46 128 121 175 165 47 44 126 119 175 165
50 46 137 129 195 184 58 56 182 173 275 260 94 88 211 199 260 247 50 48 106
102 126 120 74 70 517 488 629 595 47 44 128 121 180 170 52 49 140 132 195
184 55 52 179 169 275 260 161 152 238 225 470 445 47 45 125 119 175 165 49
47 130 124 180 171 49 47 133 126 185 175 52 49 140 132 195 184 96 91 167
158 375 354 52 49 145 137 205 195 61 59 177 169 260 246 82 77 199 187 260
245 141 135 268 256 480 455 94 88 220 207 280 265 134 128 232 220 350 331
107 100 249 235 365 347 47 45 89 82 94 82 4 0 76 -62 160 -137z m-11709
-16507 c1568 -1565 2846 -2846 2842 -2846 -5 0 -54 44 -110 99 -108 105 -152
146 -232 219 -27 26 1785 -1789 4028 -4032 2242 -2243 4077 -4082 4077 -4087
0 -4 83 -92 184 -196 101 -103 183 -192 182 -198 0 -5 -17 -9 -36 -7 -19 1
-143 9 -275 17 -524 33 -1099 104 -1635 201 -769 139 -1502 331 -2220 580
-218 76 -255 89 -320 114 -30 12 -95 36 -145 55 -80 29 -135 51 -380 151 -33
14 -69 29 -80 34 -11 5 -78 34 -150 65 -676 293 -1432 696 -2050 1093 -1178
757 -2209 1644 -3134 2698 -435 494 -1014 1268 -1301 1739 -17 28 -60 97 -97
155 -81 130 -285 477 -343 585 -23 44 -46 85 -50 90 -27 38 -317 613 -403 800
-510 1109 -852 2186 -1072 3370 -117 628 -199 1382 -221 2029 l-6 200 48 -42
c27 -23 1332 -1322 2899 -2886z m26321 2477 c-11 -247 -57 -769 -86 -978 -5
-38 -19 -137 -30 -220 -39 -285 -74 -493 -136 -804 -30 -150 -57 -270 -129
-581 -105 -457 -338 -1200 -527 -1685 -114 -291 -243 -597 -333 -790 -25 -53
-45 -99 -45 -101 0 -7 -256 -522 -313 -629 -271 -511 -617 -1077 -932 -1525
-1305 -1854 -3028 -3383 -5030 -4462 -123 -66 -698 -353 -815 -407 -124 -57
-423 -188 -480 -211 -25 -9 -108 -43 -185 -74 -514 -209 -1151 -424 -1665
-560 -269 -71 -611 -154 -745 -181 -38 -8 -124 -25 -190 -39 -585 -122 -1307
-219 -1945 -261 -298 -20 -662 -36 -669 -29 -3 3 30 40 74 82 164 158 347 334
565 542 124 118 283 271 355 340 167 161 371 358 505 485 58 56 166 159 240
230 229 221 390 376 495 475 99 95 250 240 500 481 71 69 238 228 370 354 132
126 299 286 370 355 72 69 186 180 255 245 69 66 179 171 245 235 66 64 235
226 375 360 140 134 354 339 474 455 121 115 224 215 230 220 7 6 72 69 146
140 75 72 191 184 260 250 312 298 373 356 490 469 144 139 310 299 490 470
69 66 179 172 245 236 66 63 176 169 245 235 282 270 366 351 605 580 138 132
304 291 370 354 66 63 179 172 250 241 72 69 238 229 370 355 132 126 350 335
485 465 294 282 434 416 600 575 69 66 179 172 245 235 115 111 247 238 495
475 63 61 171 164 240 230 212 205 400 385 520 500 64 61 225 216 360 345 135
130 353 339 485 465 132 126 296 284 365 350 69 67 240 231 380 365 140 134
365 350 500 479 135 130 346 333 470 451 123 118 283 272 355 341 160 155 229
218 234 219 2 0 1 -66 -3 -147z m-23436 -5359 c0 -2 -9 0 -20 6 -11 6 -20 13
-20 16 0 2 9 0 20 -6 11 -6 20 -13 20 -16z"/>
<path d="M15320 27798 c-58 -55 -204 -196 -325 -312 -121 -116 -278 -267 -350
-336 -71 -68 -177 -170 -235 -225 -58 -56 -166 -159 -240 -231 -266 -256 -336
-322 -371 -355 -20 -19 -141 -135 -270 -259 -129 -124 -351 -338 -494 -475
-143 -137 -307 -295 -365 -350 -58 -56 -157 -150 -220 -211 -63 -60 -169 -161
-235 -225 -66 -64 -136 -131 -156 -150 -40 -38 -456 -437 -624 -600 -60 -58
-126 -121 -146 -140 -20 -19 -132 -126 -250 -239 -118 -112 -261 -250 -319
-305 -57 -55 -167 -161 -245 -236 -141 -137 -357 -344 -425 -409 -69 -65 -245
-234 -375 -360 -71 -69 -231 -222 -355 -340 -124 -118 -283 -271 -355 -340
-71 -69 -135 -129 -141 -135 -6 -5 -118 -113 -250 -240 -131 -126 -298 -286
-369 -355 -72 -69 -200 -192 -285 -274 -85 -82 -195 -188 -245 -235 -271 -259
-352 -337 -580 -556 -137 -132 -301 -290 -365 -352 -63 -61 -125 -120 -137
-130 -12 -11 -127 -120 -255 -244 -315 -303 -520 -499 -750 -719 -54 -51 -98
-99 -98 -107 0 -11 76 -13 421 -13 l422 0 46 42 c143 130 276 253 351 323 47
44 141 132 210 195 228 209 339 312 400 370 14 14 50 47 80 74 30 27 87 79
125 115 39 37 120 111 180 166 61 55 112 102 115 105 10 11 292 273 745 690
116 106 239 221 275 255 36 33 128 119 205 190 77 71 163 150 190 175 107 100
376 348 520 480 45 41 223 208 235 220 3 3 30 27 60 55 30 27 111 101 180 165
68 63 158 146 200 185 41 38 102 95 135 125 33 31 87 81 119 111 33 30 72 65
86 79 14 14 51 48 81 75 66 61 228 210 493 456 109 101 231 213 271 249 39 36
128 117 196 181 68 64 194 180 279 259 85 79 207 191 270 250 63 59 178 165
256 236 164 150 377 348 484 448 42 39 103 95 135 125 33 30 114 105 180 166
66 62 215 199 330 306 116 106 232 213 259 239 28 25 84 77 125 116 42 39 108
99 146 134 39 35 102 93 140 129 39 36 129 120 200 186 190 175 417 387 465
435 3 3 37 34 75 70 173 159 230 216 235 233 6 20 -3 27 170 -137 42 -39 105
-98 140 -131 36 -33 106 -98 155 -145 50 -47 118 -110 150 -140 33 -31 98 -91
145 -135 47 -43 110 -102 140 -130 30 -28 235 -217 455 -420 220 -203 402
-371 405 -374 3 -3 54 -51 115 -106 60 -55 150 -139 200 -186 49 -47 115 -108
145 -134 30 -27 84 -76 120 -110 36 -33 97 -90 135 -125 39 -36 106 -99 150
-140 44 -41 159 -147 255 -235 96 -88 206 -190 245 -226 38 -36 97 -90 130
-120 32 -30 93 -86 135 -125 41 -39 104 -97 140 -129 36 -32 99 -91 140 -130
41 -40 104 -98 140 -130 36 -33 92 -84 125 -115 33 -31 125 -117 205 -190 80
-73 172 -159 205 -190 33 -31 92 -85 130 -120 39 -35 102 -93 140 -129 39 -37
122 -113 185 -171 63 -58 117 -108 120 -111 3 -3 68 -63 145 -134 77 -71 169
-157 205 -190 36 -34 88 -82 115 -106 28 -24 52 -46 55 -49 6 -7 158 -149 230
-216 30 -27 235 -216 455 -419 220 -202 434 -400 475 -439 67 -64 216 -201
385 -356 33 -30 89 -82 125 -116 36 -33 97 -89 135 -124 39 -36 106 -99 150
-140 81 -76 251 -233 380 -350 39 -35 72 -66 75 -70 3 -3 34 -32 70 -65 36
-33 126 -116 200 -186 74 -69 160 -147 190 -175 30 -27 88 -81 130 -120 41
-39 131 -122 199 -185 68 -63 199 -183 290 -267 91 -85 175 -160 187 -168 17
-12 90 -14 445 -12 l424 3 -45 45 c-46 47 -219 212 -420 404 -126 120 -252
241 -460 441 -74 72 -241 231 -370 355 -224 216 -392 377 -620 597 -58 56
-118 113 -135 128 -16 15 -77 73 -135 129 -58 56 -222 214 -365 351 -143 137
-365 351 -494 475 -129 124 -239 230 -245 235 -6 6 -70 66 -141 135 -72 68
-188 181 -260 249 -71 69 -177 170 -235 226 -58 56 -215 207 -350 335 -135
129 -294 282 -354 340 -60 58 -121 116 -136 130 -14 14 -136 131 -271 260
-134 129 -295 285 -359 345 -63 61 -168 162 -233 225 -66 63 -125 120 -131
125 -6 6 -68 64 -136 130 -69 66 -228 219 -355 340 -126 121 -297 285 -380
366 -175 170 -328 316 -370 354 -16 15 -82 77 -145 138 -259 250 -392 377
-496 477 -60 58 -224 215 -363 350 -140 135 -259 250 -265 255 -6 6 -68 64
-136 130 -69 65 -177 169 -240 230 -101 96 -218 209 -695 666 -55 53 -112 107
-126 120 -15 13 -131 125 -259 249 -128 124 -235 226 -239 227 -3 1 -53 -43
-111 -99z"/>
<path d="M15400 26299 c-25 -22 -85 -79 -135 -127 -49 -48 -166 -159 -260
-247 -93 -87 -208 -196 -255 -240 -47 -45 -125 -119 -175 -166 -49 -46 -92
-86 -95 -89 -3 -3 -81 -77 -175 -165 -93 -88 -203 -191 -244 -230 -41 -38 -82
-77 -90 -85 -22 -20 -161 -151 -366 -345 -93 -89 -208 -197 -255 -240 -47 -44
-87 -82 -90 -85 -8 -8 -175 -166 -355 -336 -88 -82 -248 -233 -355 -334 -107
-101 -226 -214 -265 -250 -38 -36 -117 -110 -175 -165 -57 -55 -110 -104 -116
-110 -6 -5 -49 -46 -96 -90 -46 -44 -120 -113 -163 -154 -44 -41 -118 -111
-165 -155 -47 -45 -128 -122 -180 -171 -52 -49 -136 -127 -185 -175 -50 -47
-160 -150 -245 -230 -85 -80 -198 -186 -250 -236 -82 -78 -253 -239 -286 -269
-12 -11 -279 -263 -439 -415 -156 -147 -556 -525 -685 -645 -35 -33 -109 -103
-165 -156 -112 -107 -144 -138 -236 -223 -35 -33 -140 -132 -234 -221 -93 -89
-249 -235 -345 -325 -165 -155 -209 -196 -440 -416 -52 -49 -171 -162 -265
-249 -93 -88 -172 -162 -175 -165 -9 -9 -193 -183 -332 -314 -160 -149 -151
-131 -233 -476 -58 -244 -94 -583 -94 -890 0 -358 38 -632 133 -965 30 -105
106 -302 155 -403 17 -34 31 -64 31 -66 0 -3 22 -43 50 -91 27 -48 50 -88 50
-90 0 -13 134 -201 217 -305 203 -254 479 -491 804 -694 91 -56 328 -177 454
-230 61 -26 119 -51 130 -56 94 -43 414 -149 600 -199 180 -48 428 -103 570
-126 22 -3 57 -11 78 -16 l37 -10 0 -2343 c0 -2128 1 -2344 16 -2350 20 -8
2442 -8 2472 0 l22 6 0 1799 c0 1118 4 1799 9 1799 6 0 12 -4 16 -10 10 -17
197 -122 320 -180 162 -77 359 -143 545 -184 83 -18 231 -33 388 -39 l104 -5
46 -44 c135 -130 337 -209 580 -227 119 -9 383 2 436 18 17 5 54 12 81 16 83
10 245 55 427 116 110 37 121 39 170 29 516 -105 853 -103 1080 5 96 46 175
137 210 245 3 8 44 28 94 44 453 146 823 367 948 564 14 23 31 42 36 42 7 0
10 -673 10 -1950 l0 -1950 1448 2 1447 3 3 2361 2 2361 203 6 c327 11 593 48
887 126 136 35 385 116 405 131 6 4 21 11 35 15 49 15 333 156 404 201 601
385 952 865 1136 1555 150 565 156 1267 16 2029 -50 270 -34 235 -159 352 -60
57 -122 114 -136 127 -14 13 -57 53 -96 90 -38 37 -110 104 -160 151 -167 156
-220 205 -315 295 -267 252 -405 382 -424 398 -11 10 -57 53 -101 94 -44 42
-109 104 -145 137 -36 34 -108 102 -160 151 -52 49 -124 116 -160 150 -70 66
-534 501 -665 623 -44 41 -118 111 -165 156 -47 45 -121 114 -165 155 -44 41
-116 109 -160 150 -108 102 -393 369 -609 571 -38 36 -82 76 -96 90 -136 129
-444 419 -570 535 -35 33 -105 99 -155 146 -49 47 -126 119 -170 160 -43 41
-117 110 -163 154 -47 44 -90 85 -96 90 -6 6 -81 76 -166 155 -85 79 -189 176
-230 215 -41 39 -111 104 -155 145 -44 41 -82 77 -85 80 -33 33 -448 423 -570
536 -41 38 -112 105 -159 149 -46 44 -89 85 -95 90 -13 12 -165 155 -261 245
-120 113 -257 241 -325 304 -36 34 -108 101 -160 151 -137 130 -388 366 -419
394 -37 33 -163 152 -246 230 -38 37 -106 100 -150 141 -76 71 -287 269 -474
445 -47 44 -121 115 -166 157 -44 43 -87 78 -95 78 -8 0 -35 -19 -60 -41z
m204 -3116 c67 -71 223 -234 346 -363 124 -130 313 -327 420 -439 271 -284
256 -268 445 -467 93 -98 222 -233 285 -299 64 -66 163 -169 220 -230 57 -60
154 -162 215 -225 61 -63 161 -167 221 -230 60 -63 156 -164 214 -224 58 -61
153 -160 212 -221 l107 -110 -412 -5 -412 -5 0 -1668 0 -1667 -247 0 c-164 0
-249 4 -253 11 -4 6 -13 8 -21 5 -12 -4 -14 71 -16 482 l-3 487 -1563 0 -1564
0 -1 -485 -2 -485 -280 0 -280 0 -6 145 c-4 80 -12 321 -18 535 -6 215 -16
503 -21 640 -15 382 -33 1482 -29 1741 l4 232 -75 6 c-41 3 -203 11 -360 17
-156 5 -286 11 -287 13 -3 2 173 174 672 656 77 74 221 214 320 310 200 194
361 351 790 765 159 154 364 352 455 441 91 88 233 225 315 304 83 80 222 216
310 302 88 87 164 158 168 158 5 0 63 -57 131 -127z m-5610 -4400 c8 -240 14
-634 26 -1603 5 -426 11 -838 12 -915 l3 -139 -45 -9 c-69 -13 -393 -2 -485
17 -339 68 -550 183 -732 401 -158 189 -246 443 -274 791 -32 384 51 752 227
1010 238 349 651 570 1169 623 44 5 83 9 86 10 4 0 9 -83 13 -186z m11146 166
c258 -43 611 -221 850 -429 296 -257 466 -530 547 -885 27 -121 25 -472 -4
-605 -85 -378 -266 -666 -573 -907 -139 -109 -380 -241 -566 -309 -108 -40
-381 -114 -389 -106 -8 8 -6 3248 2 3255 4 4 20 5 37 2 17 -3 60 -10 96 -16z
m-4950 -2165 c58 -13 79 -24 138 -74 69 -58 133 -96 209 -124 182 -67 256 -92
373 -122 82 -22 151 -46 175 -62 45 -30 64 -40 185 -104 47 -24 112 -60 145
-79 33 -20 69 -40 80 -46 11 -7 83 -47 160 -90 l140 -78 110 1 c61 1 245 9
410 18 1297 72 1799 94 2191 98 l282 3 38 -31 c21 -16 47 -48 58 -70 21 -38
21 -53 24 -809 3 -814 2 -832 -43 -891 -50 -66 -102 -75 -570 -99 -279 -14
-775 -42 -1185 -65 -107 -6 -196 -13 -199 -15 -2 -2 2 -26 8 -52 15 -67 15
-88 6 -167 -8 -74 -31 -149 -55 -181 -38 -52 -184 -138 -265 -157 -92 -20
-292 -15 -389 11 -44 12 -83 21 -88 21 -4 0 -8 -15 -8 -32 0 -18 -9 -63 -19
-99 -47 -172 -157 -278 -331 -318 -110 -25 -169 -26 -276 -5 l-81 16 -25 -23
c-22 -21 -26 -34 -30 -107 -4 -72 -8 -87 -34 -118 -47 -58 -141 -109 -229
-124 -88 -15 -233 -9 -340 15 -38 9 -85 19 -102 22 l-33 6 0 -44 c0 -65 -27
-169 -55 -211 -27 -40 -58 -60 -142 -89 -126 -43 -285 -44 -441 -4 -31 8 -70
13 -87 10 -23 -5 -51 5 -120 40 -49 25 -96 45 -102 45 -7 0 -13 4 -13 8 0 4
-17 14 -37 21 -21 8 -52 25 -70 38 -30 23 -33 23 -61 9 -17 -9 -36 -21 -44
-29 -126 -124 -288 -260 -336 -283 -118 -57 -312 -41 -415 33 -89 65 -138 140
-158 243 -7 36 -14 66 -15 68 -1 2 -22 -17 -45 -43 -74 -81 -233 -145 -356
-145 -191 0 -384 155 -413 332 -5 35 -10 67 -10 72 0 4 -11 1 -24 -8 -14 -9
-67 -30 -118 -48 -111 -37 -200 -42 -323 -15 -128 28 -140 37 -241 183 -18 26
-53 159 -54 202 0 17 -3 32 -7 32 -4 0 -35 -18 -70 -41 -46 -30 -86 -46 -150
-61 -85 -19 -91 -19 -173 -2 -107 21 -180 59 -256 133 -55 54 -61 64 -76 132
-28 122 -29 150 -7 235 21 80 55 134 123 197 98 90 194 191 190 199 -3 4 -13
8 -23 8 -18 0 -35 10 -141 85 -79 56 -210 146 -322 221 l-96 66 -144 -5 c-79
-2 -269 -9 -423 -16 -1071 -44 -1145 -45 -1210 -26 -68 19 -116 72 -133 145
-17 75 -17 1437 0 1512 17 73 73 129 146 146 40 9 264 12 887 12 538 0 836 4
840 10 16 26 123 40 410 55 458 25 637 16 801 -40 33 -11 63 -14 94 -10 25 3
64 2 88 -3 23 -6 42 -6 42 -2 0 30 188 105 362 145 32 7 64 17 70 23 7 5 28
13 45 17 33 7 133 88 133 108 1 17 40 61 70 80 14 8 86 35 160 60 200 68 335
85 800 104 212 8 426 17 475 20 50 2 218 8 375 12 157 4 289 9 293 9 4 1 39
-5 77 -14z"/>
<path d="M14706 20415 l-26 -24 0 -895 0 -895 26 -20 c26 -21 34 -21 701 -21
l674 0 24 25 25 24 0 889 0 889 -26 27 -27 26 -672 0 -672 0 -27 -25z m1346
-902 c2 -472 1 -864 -1 -870 -2 -10 -141 -13 -652 -13 l-649 0 0 863 c0 475 3
867 7 870 3 4 296 7 650 7 l643 0 2 -857z"/>
<path d="M8818 18263 c12 -2 30 -2 40 0 9 3 -1 5 -23 4 -22 0 -30 -2 -17 -4z"/>
<path d="M15835 16599 c-1148 -43 -1254 -48 -1370 -65 -192 -29 -328 -83 -374
-149 -43 -60 -173 -155 -214 -155 -10 0 -28 -6 -40 -14 -12 -8 -38 -17 -57
-21 -19 -3 -55 -12 -80 -20 -25 -7 -78 -23 -118 -35 -72 -22 -132 -60 -132
-84 0 -26 68 -82 144 -119 43 -21 132 -56 198 -78 106 -34 131 -39 217 -39
159 0 337 47 519 137 l97 47 175 7 c96 4 315 7 485 8 294 1 428 -8 450 -30 5
-5 17 -9 27 -9 23 0 244 -97 327 -144 34 -20 64 -36 66 -36 2 0 30 -15 62 -34
32 -18 92 -51 133 -74 41 -22 208 -113 370 -202 162 -90 369 -203 460 -253
149 -81 482 -264 570 -314 19 -11 76 -41 125 -68 122 -65 372 -202 530 -290
72 -40 198 -109 280 -155 l150 -82 260 16 c143 9 350 20 460 26 110 5 227 12
260 15 33 3 197 12 365 21 168 9 357 19 420 23 l115 6 3 749 c1 414 -2 754 -7
759 -4 4 -106 4 -232 -2 -123 -6 -489 -22 -814 -36 -324 -13 -655 -29 -735
-35 -80 -5 -262 -15 -405 -20 -143 -6 -276 -13 -295 -15 -19 -3 -135 -10 -258
-16 -191 -9 -225 -9 -235 4 -7 7 -28 20 -47 27 -19 8 -46 21 -60 30 -23 16
-100 58 -210 116 -25 13 -52 28 -60 34 -8 5 -69 40 -135 76 -66 37 -147 82
-180 101 -33 19 -67 38 -75 42 -8 5 -53 19 -100 31 -297 80 -547 182 -635 262
-66 60 -85 68 -142 66 -26 0 -142 -5 -258 -9z"/>
<path d="M12425 16094 c-386 -15 -410 -18 -452 -50 l-33 -25 -865 1 -865 1 0
-727 0 -726 143 6 c78 3 302 11 497 17 195 5 434 14 530 19 96 5 272 12 390
16 l215 7 182 -124 c101 -68 191 -129 200 -134 10 -6 54 -37 97 -69 l79 -59
76 2 c42 1 105 9 141 17 36 8 124 17 195 20 105 5 142 3 190 -11 33 -10 72
-19 87 -22 15 -3 33 -11 39 -19 6 -8 21 -14 33 -14 12 0 39 -16 61 -35 22 -19
42 -35 45 -35 3 0 23 -27 44 -60 22 -34 42 -59 45 -58 42 20 172 83 193 94 14
8 41 14 60 14 19 0 39 5 45 11 7 7 62 14 133 17 127 5 241 -8 292 -34 15 -8
34 -14 43 -14 20 0 164 -71 204 -101 30 -22 30 -22 98 -4 104 27 149 35 261
47 87 10 115 9 187 -4 46 -9 99 -23 117 -31 18 -8 40 -18 48 -21 34 -15 58
-33 89 -66 46 -49 111 -148 111 -168 0 -9 7 -30 15 -46 8 -15 15 -38 15 -50 0
-31 10 -40 65 -65 67 -31 93 -43 140 -69 35 -18 68 -34 157 -72 13 -6 30 -14
38 -19 8 -5 53 -27 100 -49 47 -22 151 -72 232 -111 81 -39 151 -71 157 -71 5
0 22 -11 37 -25 15 -14 36 -25 48 -26 12 0 44 -12 73 -27 29 -15 78 -40 110
-56 32 -16 60 -32 63 -35 7 -9 124 -41 190 -52 71 -13 215 -16 260 -6 60 13
81 39 87 104 7 81 -11 140 -56 183 -20 20 -102 71 -181 115 -79 44 -171 95
-204 114 -34 18 -82 48 -109 67 -26 19 -53 34 -60 34 -6 0 -59 28 -117 62
-103 60 -150 87 -220 124 -19 11 -37 22 -40 26 -3 4 -23 14 -44 23 -21 9 -50
24 -65 34 -14 10 -61 38 -104 61 -121 68 -136 91 -102 156 25 48 75 56 150 24
28 -12 49 -28 52 -40 3 -12 11 -19 17 -17 10 4 120 -50 231 -113 24 -14 84
-47 132 -74 48 -27 92 -55 96 -62 4 -8 17 -14 28 -14 11 0 45 -16 75 -35 30
-19 57 -35 60 -35 3 0 40 -22 83 -50 43 -27 82 -50 87 -50 5 0 63 -32 129 -71
262 -153 447 -218 621 -219 133 0 221 46 269 141 31 60 35 159 7 200 -28 43
-99 119 -110 119 -5 0 -15 7 -23 16 -7 8 -47 32 -88 53 -42 21 -143 77 -224
124 -82 48 -151 87 -153 87 -3 0 -30 16 -60 35 -30 19 -57 35 -60 35 -5 0 -61
31 -263 148 -68 40 -125 72 -127 72 -2 0 -37 20 -77 44 -39 24 -101 58 -136
77 -125 67 -161 127 -105 176 39 33 89 40 122 16 15 -10 47 -27 72 -38 25 -10
56 -26 70 -35 14 -9 36 -21 50 -28 14 -6 54 -30 90 -52 36 -22 83 -49 105 -59
22 -11 50 -29 62 -40 12 -12 29 -21 38 -21 9 0 33 -11 53 -25 20 -14 40 -25
45 -25 4 0 34 -18 67 -40 32 -22 98 -60 147 -86 48 -25 95 -52 103 -59 8 -7
35 -23 60 -35 79 -38 115 -59 125 -73 6 -8 17 -14 25 -14 9 0 42 -16 73 -36
32 -20 60 -37 63 -37 6 0 120 -68 139 -83 26 -20 199 -97 232 -103 21 -4 49
-12 63 -19 38 -19 180 -27 241 -14 58 12 129 46 168 79 47 40 60 189 23 272
-11 26 -45 71 -75 100 -55 55 -85 73 -297 179 -69 34 -136 70 -150 79 -14 10
-104 58 -200 107 -96 50 -191 99 -210 111 -19 11 -80 43 -135 71 -118 59 -160
84 -184 105 -10 9 -22 16 -27 16 -12 0 -189 90 -242 124 -23 14 -68 40 -100
57 -31 16 -64 34 -72 39 -8 5 -57 29 -108 54 -51 25 -116 60 -145 79 -28 19
-90 53 -137 76 -123 62 -281 151 -313 178 -16 13 -36 23 -46 23 -9 0 -41 11
-69 25 -29 14 -54 25 -57 25 -3 0 -78 35 -167 78 -90 43 -181 83 -203 90 -225
64 -226 64 -524 52 -146 -6 -322 -15 -390 -20 -68 -6 -153 -10 -188 -10 -58 0
-144 -17 -198 -40 -113 -46 -509 -76 -611 -45 -27 8 -66 15 -86 15 -20 0 -47
4 -60 10 -13 5 -54 21 -93 36 -38 15 -77 33 -85 41 -8 7 -42 31 -75 53 -33 22
-87 58 -119 80 -65 45 -135 85 -151 85 -6 0 -27 10 -47 22 -100 59 -205 89
-333 96 -44 2 -219 -2 -390 -9z"/>
<path d="M12965 14155 c-27 -8 -54 -14 -58 -15 -11 0 -208 -182 -381 -351
l-139 -135 -5 -57 c-7 -82 4 -123 46 -169 52 -57 101 -78 190 -78 58 0 83 5
122 25 57 29 487 436 521 493 29 51 23 124 -17 188 -52 84 -176 128 -279 99z"/>
<path d="M13935 14059 c-34 -10 -137 -93 -235 -189 -36 -35 -119 -115 -185
-178 -389 -371 -393 -377 -374 -488 9 -54 18 -74 44 -100 39 -39 83 -63 148
-80 78 -20 172 14 253 92 16 16 70 67 119 113 383 359 525 502 547 551 45 98
-2 208 -114 264 -55 28 -140 34 -203 15z"/>
<path d="M14871 13900 c-43 -20 -124 -88 -247 -206 -153 -149 -333 -321 -474
-454 -180 -169 -215 -206 -229 -237 -6 -13 -16 -34 -22 -47 -28 -59 23 -160
106 -211 44 -27 57 -30 129 -30 101 0 126 15 275 159 57 56 120 117 140 136
232 223 310 297 450 430 90 85 172 172 182 192 20 40 25 102 10 141 -16 41
-71 97 -122 123 -61 30 -136 32 -198 4z"/>
<path d="M15405 13413 c-30 -8 -81 -48 -180 -143 -135 -127 -349 -328 -412
-385 -88 -80 -115 -172 -74 -253 30 -58 70 -89 136 -107 110 -28 155 -8 315
141 63 59 144 134 180 167 292 270 340 324 340 384 0 77 -63 162 -137 187 -44
15 -126 19 -168 9z"/>
<path d="M15830 13009 c-91 -83 -167 -155 -168 -160 -2 -5 20 -21 50 -35 29
-13 60 -29 68 -34 75 -44 119 -66 140 -72 14 -3 52 -13 85 -22 82 -23 241 -37
304 -27 97 15 127 62 114 176 -7 59 -33 106 -76 137 -47 34 -327 188 -340 188
-7 0 -86 -68 -177 -151z"/>
<path d="M14210 9399 c-163 -11 -330 -60 -509 -146 -103 -50 -256 -144 -314
-192 -191 -160 -262 -237 -372 -406 -161 -247 -230 -462 -241 -750 -6 -172 5
-344 29 -440 30 -122 47 -179 57 -189 5 -5 10 -16 10 -23 0 -25 82 -187 136
-270 69 -107 176 -233 304 -358 56 -55 110 -109 119 -120 9 -11 30 -31 46 -43
34 -26 482 -461 734 -712 91 -91 178 -174 192 -185 34 -26 533 -509 739 -716
85 -85 166 -163 180 -171 14 -9 50 -22 81 -28 47 -11 64 -10 110 4 59 18 64
22 374 325 94 91 301 292 460 446 159 154 360 348 445 431 85 83 290 281 454
440 467 451 482 466 594 614 67 88 182 298 182 331 0 8 4 19 9 25 11 12 56
162 70 234 21 101 30 306 20 439 -19 274 -81 462 -228 699 -219 351 -599 624
-1021 734 -112 29 -357 42 -547 29 -194 -12 -307 -40 -503 -121 -100 -41 -244
-125 -332 -193 l-38 -28 -78 53 c-101 68 -106 72 -174 107 -31 17 -65 35 -75
41 -39 22 -213 84 -303 107 -146 37 -374 49 -610 32z m500 -199 c268 -57 482
-163 702 -351 l37 -32 63 55 c190 165 414 273 678 329 151 32 429 32 580 0
543 -115 967 -497 1114 -1003 31 -107 56 -281 56 -390 0 -175 -51 -406 -126
-568 -87 -185 -175 -299 -406 -525 -297 -291 -512 -500 -813 -790 -159 -154
-378 -365 -485 -470 -367 -358 -651 -630 -661 -633 -5 -2 -85 70 -177 159
-159 156 -349 340 -657 639 -129 125 -593 574 -930 899 -403 389 -488 488
-585 680 -93 187 -130 333 -137 551 -9 267 27 450 132 665 152 314 437 578
759 704 126 49 273 87 386 100 123 14 357 4 470 -19z"/>
<path d="M6380 9896 c0 -2 8 -10 18 -17 15 -13 16 -12 3 4 -13 16 -21 21 -21
13z"/>
</g>
</svg>
